<svg width="200" height="200" viewBox="0 0 200 200" fill="none" xmlns="http://www.w3.org/2000/svg">
<path d="M7.69232 57.6923H192.308V190.385C192.308 195.769 188.077 200 182.692 200H17.3077C11.9231 200 7.69232 195.769 7.69232 190.385V57.6923Z" fill="#C8CBD1"/>
<path d="M159.615 189.885H159.599L159.582 189.886L17.2911 199.5C12.1906 199.491 8.19232 195.488 8.19232 190.385V58.1923H191.808V167.308C191.808 169.872 190.414 175.519 185.694 180.522C180.993 185.506 172.957 189.885 159.615 189.885Z" fill="white" stroke="#E1E1E1"/>
<path d="M192.308 57.6923H7.69232V76.923H192.308V57.6923Z" fill="#D5D7DE"/>
<path d="M11.5385 21.1538H188.462C194.808 21.1538 200 26.3461 200 32.6923V67.3077H0V32.6923C0 26.3461 5.19231 21.1538 11.5385 21.1538Z" fill="#505050"/>
<path d="M25 40.3846C29.2483 40.3846 32.6923 36.9407 32.6923 32.6923C32.6923 28.444 29.2483 25 25 25C20.7516 25 17.3077 28.444 17.3077 32.6923C17.3077 36.9407 20.7516 40.3846 25 40.3846Z" fill="black"/>
<path d="M30.7692 5.76923V31.3462C30.7692 34.6154 28.2692 37.1154 25 37.1154C21.7308 37.1154 19.2308 34.6154 19.2308 31.3462V5.76923C19.2308 2.5 21.7308 0 25 0C28.2692 0 30.7692 2.5 30.7692 5.76923Z" fill="#C7C7C7"/>
<path d="M25 0V37.1154C21.7308 37.1154 19.2308 34.6154 19.2308 31.3462V5.76923C19.2308 2.5 21.7308 0 25 0Z" fill="#B3B3B3"/>
<path d="M175 40.3846C179.248 40.3846 182.692 36.9407 182.692 32.6923C182.692 28.444 179.248 25 175 25C170.752 25 167.308 28.444 167.308 32.6923C167.308 36.9407 170.752 40.3846 175 40.3846Z" fill="black"/>
<path d="M180.769 5.76923V31.3462C180.769 34.6154 178.269 37.1154 175 37.1154C171.731 37.1154 169.231 34.6154 169.231 31.3462V5.76923C169.231 2.5 171.731 0 175 0C178.269 0 180.769 2.5 180.769 5.76923Z" fill="#C7C7C7"/>
<path d="M175 0V37.1154C171.731 37.1154 169.231 34.6154 169.231 31.3462V5.76923C169.231 2.5 171.731 0 175 0Z" fill="#B3B3B3"/>
<path d="M108.461 90.3846V176.154H87.1153V130.192C87.3076 126.154 87.1153 122.115 86.7307 118.269C86.3461 116.923 85.3845 115.769 84.0384 115.192C80.9615 114.231 77.6922 113.846 74.423 114.231H72.3076V104.231C82.6922 101.923 90.5769 97.3077 95.9615 90.3846H108.461Z" fill="#505050"/>
<path d="M54.3268 45.2078C54.3268 46.7561 54.1223 48.0826 53.7135 49.1874C53.3134 50.2834 52.7349 51.1793 51.9781 51.8752C51.2214 52.5711 50.2993 53.0843 49.212 53.4149C48.1334 53.7367 46.846 53.8976 45.3499 53.8976H41.3181C41.031 53.8976 40.7875 53.815 40.5874 53.6497C40.396 53.4757 40.3004 53.1974 40.3004 52.8147V38.0967C40.3004 37.714 40.396 37.44 40.5874 37.2747C40.7875 37.1007 41.031 37.0138 41.3181 37.0138H45.65C47.1548 37.0138 48.4291 37.1921 49.473 37.5487C50.5255 37.8967 51.4084 38.4186 52.1217 39.1144C52.8437 39.8016 53.3917 40.6541 53.7657 41.6718C54.1397 42.6895 54.3268 43.8682 54.3268 45.2078ZM50.7777 45.3252C50.7777 44.5249 50.6821 43.7812 50.4907 43.094C50.308 42.4068 50.0079 41.811 49.5904 41.3065C49.1816 40.802 48.651 40.4105 47.9986 40.1322C47.3549 39.8451 46.5068 39.7016 45.4542 39.7016H43.7189V51.1837H45.5064C46.4459 51.1837 47.2374 51.0619 47.8811 50.8183C48.5248 50.5748 49.0598 50.2094 49.486 49.7223C49.9209 49.2265 50.2428 48.6133 50.4516 47.8826C50.669 47.1519 50.7777 46.2994 50.7777 45.3252Z" fill="white"/>
<path d="M67.1658 52.5537C67.1658 52.806 67.1528 53.0191 67.1267 53.193C67.1093 53.3583 67.0788 53.4931 67.0353 53.5975C66.9918 53.7019 66.9353 53.7802 66.8657 53.8324C66.8048 53.8759 66.7352 53.8976 66.6569 53.8976H58.1759C57.8888 53.8976 57.6452 53.815 57.4452 53.6497C57.2538 53.4757 57.1581 53.1974 57.1581 52.8147V38.0967C57.1581 37.714 57.2538 37.44 57.4452 37.2747C57.6452 37.1007 57.8888 37.0138 58.1759 37.0138H66.6047C66.683 37.0138 66.7526 37.0355 66.8135 37.079C66.8744 37.1225 66.9266 37.2008 66.9701 37.3139C67.0136 37.4182 67.044 37.5574 67.0614 37.7314C67.0875 37.8967 67.1006 38.1098 67.1006 38.3707C67.1006 38.6143 67.0875 38.823 67.0614 38.997C67.044 39.1623 67.0136 39.2971 66.9701 39.4015C66.9266 39.5059 66.8744 39.5842 66.8135 39.6364C66.7526 39.6799 66.683 39.7016 66.6047 39.7016H60.5767V43.8247H65.6784C65.7566 43.8247 65.8262 43.8508 65.8871 43.903C65.9567 43.9465 66.0132 44.0204 66.0567 44.1248C66.1002 44.2205 66.1307 44.3553 66.1481 44.5293C66.1742 44.6946 66.1872 44.899 66.1872 45.1425C66.1872 45.3948 66.1742 45.6036 66.1481 45.7688C66.1307 45.9341 66.1002 46.0689 66.0567 46.1733C66.0132 46.269 65.9567 46.3386 65.8871 46.3821C65.8262 46.4256 65.7566 46.4473 65.6784 46.4473H60.5767V51.2098H66.6569C66.7352 51.2098 66.8048 51.2359 66.8657 51.2881C66.9353 51.3316 66.9918 51.4055 67.0353 51.5099C67.0788 51.6143 67.1093 51.7534 67.1267 51.9274C67.1528 52.0927 67.1658 52.3014 67.1658 52.5537Z" fill="white"/>
<path d="M81.4923 51.3403C81.4923 51.5577 81.4836 51.7447 81.4662 51.9013C81.4575 52.0492 81.4401 52.1797 81.414 52.2927C81.3879 52.3971 81.3531 52.4885 81.3096 52.5667C81.2661 52.645 81.1966 52.7364 81.1009 52.8407C81.0052 52.9364 80.8182 53.0626 80.5398 53.2191C80.2702 53.3757 79.9353 53.5279 79.5351 53.6758C79.1437 53.815 78.6914 53.9324 78.1782 54.0281C77.6736 54.1238 77.1256 54.1716 76.5341 54.1716C75.3772 54.1716 74.3334 53.9933 73.4027 53.6367C72.4719 53.28 71.6803 52.7494 71.028 52.0448C70.3756 51.3316 69.8754 50.4443 69.5275 49.3831C69.1795 48.3219 69.0055 47.0867 69.0055 45.6775C69.0055 44.2422 69.1969 42.9679 69.5796 41.8545C69.9624 40.7411 70.4973 39.806 71.1845 39.0492C71.8717 38.2924 72.6937 37.7183 73.6506 37.3269C74.6161 36.9355 75.6773 36.7397 76.8342 36.7397C77.304 36.7397 77.7563 36.7789 78.1912 36.8572C78.6261 36.9355 79.0263 37.0398 79.3916 37.1703C79.7656 37.2921 80.1005 37.4356 80.3963 37.6009C80.692 37.7662 80.8965 37.9097 81.0095 38.0315C81.1313 38.1446 81.2139 38.2402 81.2574 38.3185C81.3009 38.3968 81.3357 38.4969 81.3618 38.6186C81.3879 38.7404 81.4053 38.8839 81.414 39.0492C81.4314 39.2145 81.4401 39.4189 81.4401 39.6625C81.4401 39.9234 81.4314 40.1452 81.414 40.3279C81.3966 40.5106 81.3662 40.6584 81.3227 40.7715C81.2792 40.8846 81.227 40.9672 81.1661 41.0194C81.1052 41.0716 81.0356 41.0977 80.9573 41.0977C80.8269 41.0977 80.6616 41.0238 80.4615 40.8759C80.2615 40.7193 80.0005 40.5497 79.6787 40.367C79.3655 40.1757 78.9871 40.006 78.5435 39.8582C78.1086 39.7016 77.5867 39.6233 76.9778 39.6233C76.308 39.6233 75.7078 39.7625 75.1772 40.0408C74.6553 40.3105 74.2073 40.7019 73.8332 41.2151C73.4679 41.7197 73.1895 42.3329 72.9982 43.0549C72.8068 43.7769 72.7111 44.5902 72.7111 45.4948C72.7111 46.4865 72.8112 47.3476 73.0112 48.0783C73.22 48.8003 73.5114 49.3961 73.8854 49.8658C74.2682 50.3356 74.7248 50.6879 75.2554 50.9227C75.7948 51.1489 76.3993 51.262 77.0691 51.262C77.678 51.262 78.2043 51.1924 78.6479 51.0532C79.0915 50.9053 79.4699 50.7444 79.783 50.5704C80.1049 50.3965 80.3658 50.2399 80.5659 50.1007C80.7747 49.9615 80.9356 49.8919 81.0487 49.8919C81.1357 49.8919 81.2052 49.9093 81.2574 49.9441C81.3096 49.9789 81.3531 50.0485 81.3879 50.1529C81.4227 50.2573 81.4488 50.4052 81.4662 50.5965C81.4836 50.7792 81.4923 51.0271 81.4923 51.3403Z" fill="white"/>
<path d="M93.966 52.5537C93.966 52.806 93.953 53.0191 93.9269 53.193C93.9095 53.3583 93.879 53.4931 93.8355 53.5975C93.792 53.7019 93.7355 53.7802 93.6659 53.8324C93.605 53.8759 93.5354 53.8976 93.4571 53.8976H84.9761C84.689 53.8976 84.4455 53.815 84.2454 53.6497C84.054 53.4757 83.9583 53.1974 83.9583 52.8147V38.0967C83.9583 37.714 84.054 37.44 84.2454 37.2747C84.4455 37.1007 84.689 37.0138 84.9761 37.0138H93.405C93.4832 37.0138 93.5528 37.0355 93.6137 37.079C93.6746 37.1225 93.7268 37.2008 93.7703 37.3139C93.8138 37.4182 93.8442 37.5574 93.8616 37.7314C93.8877 37.8967 93.9008 38.1098 93.9008 38.3707C93.9008 38.6143 93.8877 38.823 93.8616 38.997C93.8442 39.1623 93.8138 39.2971 93.7703 39.4015C93.7268 39.5059 93.6746 39.5842 93.6137 39.6364C93.5528 39.6799 93.4832 39.7016 93.405 39.7016H87.3769V43.8247H92.4786C92.5569 43.8247 92.6264 43.8508 92.6873 43.903C92.7569 43.9465 92.8135 44.0204 92.8569 44.1248C92.9004 44.2205 92.9309 44.3553 92.9483 44.5293C92.9744 44.6946 92.9874 44.899 92.9874 45.1425C92.9874 45.3948 92.9744 45.6036 92.9483 45.7688C92.9309 45.9341 92.9004 46.0689 92.8569 46.1733C92.8135 46.269 92.7569 46.3386 92.6873 46.3821C92.6264 46.4256 92.5569 46.4473 92.4786 46.4473H87.3769V51.2098H93.4571C93.5354 51.2098 93.605 51.2359 93.6659 51.2881C93.7355 51.3316 93.792 51.4055 93.8355 51.5099C93.879 51.6143 93.9095 51.7534 93.9269 51.9274C93.953 52.0927 93.966 52.3014 93.966 52.5537Z" fill="white"/>
<path d="M116.682 53.4279C116.682 53.5149 116.656 53.5932 116.604 53.6628C116.56 53.7323 116.473 53.7889 116.343 53.8324C116.221 53.8759 116.056 53.9107 115.847 53.9368C115.638 53.9629 115.373 53.9759 115.051 53.9759C114.738 53.9759 114.477 53.9629 114.268 53.9368C114.06 53.9107 113.894 53.8759 113.773 53.8324C113.651 53.7889 113.564 53.7323 113.512 53.6628C113.459 53.5932 113.433 53.5149 113.433 53.4279V39.6886H113.407L108.514 53.4149C108.48 53.5279 108.423 53.6236 108.345 53.7019C108.266 53.7715 108.158 53.828 108.019 53.8715C107.888 53.915 107.718 53.9411 107.51 53.9498C107.301 53.9672 107.049 53.9759 106.753 53.9759C106.457 53.9759 106.205 53.9629 105.996 53.9368C105.787 53.9194 105.613 53.8889 105.474 53.8454C105.344 53.7932 105.239 53.7323 105.161 53.6628C105.083 53.5932 105.031 53.5105 105.004 53.4149L100.281 39.6886H100.255V53.4279C100.255 53.5149 100.229 53.5932 100.177 53.6628C100.133 53.7323 100.046 53.7889 99.9158 53.8324C99.7853 53.8759 99.6157 53.9107 99.407 53.9368C99.2069 53.9629 98.9459 53.9759 98.6241 53.9759C98.3109 53.9759 98.05 53.9629 97.8412 53.9368C97.6325 53.9107 97.4628 53.8759 97.3324 53.8324C97.2106 53.7889 97.1236 53.7323 97.0714 53.6628C97.0279 53.5932 97.0062 53.5149 97.0062 53.4279V38.3838C97.0062 37.9401 97.1236 37.6009 97.3584 37.366C97.5933 37.1312 97.9065 37.0138 98.2979 37.0138H100.542C100.942 37.0138 101.286 37.0485 101.573 37.1181C101.86 37.179 102.108 37.2878 102.317 37.4443C102.525 37.5922 102.699 37.7923 102.839 38.0445C102.978 38.2881 103.099 38.5925 103.204 38.9579L106.857 49.0177H106.909L110.693 38.984C110.806 38.6186 110.928 38.3098 111.059 38.0576C111.198 37.8053 111.354 37.6009 111.528 37.4443C111.711 37.2878 111.924 37.179 112.168 37.1181C112.411 37.0485 112.694 37.0138 113.016 37.0138H115.325C115.56 37.0138 115.76 37.0442 115.925 37.1051C116.099 37.166 116.239 37.2573 116.343 37.3791C116.456 37.4922 116.539 37.6357 116.591 37.8097C116.652 37.9749 116.682 38.1663 116.682 38.3838V53.4279Z" fill="white"/>
<path d="M132.588 48.8351C132.588 49.4353 132.505 49.9789 132.34 50.466C132.174 50.9532 131.944 51.3837 131.648 51.7578C131.361 52.1318 131.013 52.4537 130.604 52.7233C130.204 52.993 129.761 53.2148 129.273 53.3888C128.786 53.5627 128.264 53.6932 127.708 53.7802C127.16 53.8585 126.546 53.8976 125.868 53.8976H121.379C121.092 53.8976 120.849 53.815 120.649 53.6497C120.457 53.4757 120.362 53.1974 120.362 52.8147V38.0967C120.362 37.714 120.457 37.44 120.649 37.2747C120.849 37.1007 121.092 37.0138 121.379 37.0138H125.62C126.655 37.0138 127.529 37.1007 128.243 37.2747C128.965 37.4487 129.569 37.714 130.056 38.0706C130.552 38.4186 130.93 38.8622 131.191 39.4015C131.452 39.9408 131.583 40.5758 131.583 41.3065C131.583 41.7153 131.531 42.1024 131.426 42.4677C131.322 42.8244 131.17 43.1506 130.97 43.4463C130.77 43.7421 130.522 44.003 130.226 44.2292C129.939 44.4554 129.608 44.638 129.234 44.7772C129.713 44.8642 130.152 45.0164 130.552 45.2339C130.961 45.4513 131.313 45.734 131.609 46.082C131.913 46.4212 132.153 46.8214 132.327 47.2824C132.501 47.7434 132.588 48.261 132.588 48.8351ZM128.151 41.724C128.151 41.3848 128.099 41.0803 127.995 40.8107C127.89 40.541 127.734 40.3192 127.525 40.1452C127.316 39.9626 127.051 39.8234 126.729 39.7277C126.416 39.632 125.994 39.5842 125.463 39.5842H123.728V43.9682H125.646C126.142 43.9682 126.538 43.9117 126.833 43.7986C127.129 43.6768 127.373 43.5159 127.564 43.3158C127.764 43.1071 127.912 42.8679 128.008 42.5982C128.103 42.3199 128.151 42.0285 128.151 41.724ZM129.025 48.9525C129.025 48.5611 128.96 48.2131 128.83 47.9087C128.699 47.5955 128.508 47.3346 128.256 47.1258C128.003 46.917 127.682 46.7561 127.29 46.643C126.899 46.53 126.39 46.4734 125.764 46.4734H123.728V51.275H126.207C126.686 51.275 127.086 51.2272 127.408 51.1315C127.738 51.0271 128.021 50.8792 128.256 50.6879C128.499 50.4878 128.686 50.2442 128.817 49.9572C128.956 49.6614 129.025 49.3265 129.025 48.9525Z" fill="white"/>
<path d="M145.348 52.5537C145.348 52.806 145.335 53.0191 145.309 53.193C145.292 53.3583 145.261 53.4931 145.218 53.5975C145.174 53.7019 145.118 53.7802 145.048 53.8324C144.987 53.8759 144.918 53.8976 144.839 53.8976H136.358C136.071 53.8976 135.828 53.815 135.628 53.6497C135.436 53.4757 135.341 53.1974 135.341 52.8147V38.0967C135.341 37.714 135.436 37.44 135.628 37.2747C135.828 37.1007 136.071 37.0138 136.358 37.0138H144.787C144.866 37.0138 144.935 37.0355 144.996 37.079C145.057 37.1225 145.109 37.2008 145.153 37.3139C145.196 37.4182 145.227 37.5574 145.244 37.7314C145.27 37.8967 145.283 38.1098 145.283 38.3707C145.283 38.6143 145.27 38.823 145.244 38.997C145.227 39.1623 145.196 39.2971 145.153 39.4015C145.109 39.5059 145.057 39.5842 144.996 39.6364C144.935 39.6799 144.866 39.7016 144.787 39.7016H138.759V43.8247H143.861C143.939 43.8247 144.009 43.8508 144.07 43.903C144.139 43.9465 144.196 44.0204 144.239 44.1248C144.283 44.2205 144.313 44.3553 144.331 44.5293C144.357 44.6946 144.37 44.899 144.37 45.1425C144.37 45.3948 144.357 45.6036 144.331 45.7688C144.313 45.9341 144.283 46.0689 144.239 46.1733C144.196 46.269 144.139 46.3386 144.07 46.3821C144.009 46.4256 143.939 46.4473 143.861 46.4473H138.759V51.2098H144.839C144.918 51.2098 144.987 51.2359 145.048 51.2881C145.118 51.3316 145.174 51.4055 145.218 51.5099C145.261 51.6143 145.292 51.7534 145.309 51.9274C145.335 52.0927 145.348 52.3014 145.348 52.5537Z" fill="white"/>
<path d="M160.914 53.454C160.914 53.5497 160.897 53.6323 160.862 53.7019C160.827 53.7628 160.745 53.815 160.614 53.8585C160.484 53.902 160.292 53.9324 160.04 53.9498C159.788 53.9672 159.444 53.9759 159.009 53.9759C158.644 53.9759 158.353 53.9672 158.135 53.9498C157.918 53.9324 157.744 53.902 157.613 53.8585C157.491 53.8063 157.404 53.7454 157.352 53.6758C157.3 53.5975 157.257 53.5062 157.222 53.4018L155.708 49.631C155.526 49.2048 155.347 48.8264 155.173 48.4958C154.999 48.1653 154.804 47.8913 154.586 47.6738C154.377 47.4477 154.134 47.278 153.855 47.1649C153.577 47.0519 153.255 46.9953 152.89 46.9953H151.82V53.4279C151.82 53.5149 151.79 53.5932 151.729 53.6628C151.676 53.7323 151.585 53.7889 151.455 53.8324C151.324 53.8759 151.15 53.9107 150.933 53.9368C150.715 53.9629 150.437 53.9759 150.098 53.9759C149.767 53.9759 149.489 53.9629 149.263 53.9368C149.045 53.9107 148.871 53.8759 148.741 53.8324C148.61 53.7889 148.519 53.7323 148.467 53.6628C148.415 53.5932 148.388 53.5149 148.388 53.4279V38.0967C148.388 37.714 148.484 37.44 148.675 37.2747C148.876 37.1007 149.119 37.0138 149.406 37.0138H153.777C154.221 37.0138 154.586 37.0224 154.873 37.0398C155.16 37.0572 155.421 37.079 155.656 37.1051C156.335 37.2008 156.943 37.366 157.483 37.6009C158.031 37.8358 158.492 38.1446 158.866 38.5273C159.249 38.9013 159.54 39.3493 159.74 39.8712C159.94 40.3844 160.04 40.9759 160.04 41.6457C160.04 42.2111 159.966 42.7287 159.818 43.1984C159.679 43.6594 159.47 44.0726 159.192 44.438C158.914 44.8033 158.57 45.1208 158.161 45.3904C157.752 45.6601 157.287 45.8776 156.765 46.0428C157.017 46.1646 157.252 46.3125 157.47 46.4865C157.696 46.6604 157.905 46.8735 158.096 47.1258C158.296 47.3694 158.483 47.6521 158.657 47.9739C158.831 48.2871 159.001 48.6437 159.166 49.0438L160.588 52.371C160.719 52.7016 160.806 52.9451 160.849 53.1017C160.893 53.2496 160.914 53.367 160.914 53.454ZM156.491 41.998C156.491 41.4413 156.365 40.9716 156.113 40.5889C155.86 40.2061 155.447 39.9365 154.873 39.7799C154.699 39.7364 154.499 39.7016 154.273 39.6755C154.056 39.6494 153.751 39.6364 153.36 39.6364H151.82V44.4249H153.568C154.056 44.4249 154.482 44.3684 154.847 44.2553C155.212 44.1335 155.517 43.9682 155.76 43.7595C156.004 43.542 156.187 43.2854 156.308 42.9896C156.43 42.6939 156.491 42.3634 156.491 41.998Z" fill="white"/>
</svg>
