<svg width="200" height="179" viewBox="0 0 200 179" fill="none" xmlns="http://www.w3.org/2000/svg">
<path d="M100.002 127.776C102.75 127.776 104.977 125.549 104.977 122.801C104.977 120.052 102.75 117.825 100.002 117.825C97.2535 117.825 95.0258 120.052 95.0258 122.801C95.0258 125.549 97.2535 127.776 100.002 127.776Z" fill="#505050"/>
<path d="M187.927 0H12.0739C5.41643 0 0 5.41643 0 12.0739V133.488C0 140.145 5.41643 145.562 12.0739 145.562H72.3319V154.347C72.3319 162.401 65.7796 168.953 57.726 168.953H44.4459C41.8998 168.953 39.8353 171.017 39.8353 173.564C39.8353 176.11 41.8998 178.174 44.4459 178.174H155.554C158.1 178.174 160.165 176.11 160.165 173.564C160.165 171.017 158.1 168.953 155.554 168.953H142.274C134.22 168.953 127.668 162.401 127.668 154.347V145.562H187.926C194.583 145.562 200 140.146 200 133.488V12.0739C200.001 5.41643 194.584 0 187.927 0ZM76.5316 168.954C79.6745 164.916 81.5538 159.849 81.5538 154.348V145.563H118.447V154.348C118.447 159.849 120.327 164.917 123.47 168.954H76.5316ZM190.78 133.488C190.78 135.061 189.5 136.342 187.927 136.342H12.0739C10.5008 136.342 9.22074 135.062 9.22074 133.488V109.257H190.78V133.488ZM190.78 100.035H9.22113V12.0739C9.22113 10.5008 10.5008 9.22074 12.0743 9.22074H187.927C189.5 9.22074 190.78 10.5004 190.78 12.0739V100.035H190.78Z" fill="#505050"/>
<path d="M107.906 31.7646C106.105 29.9642 103.187 29.9642 101.385 31.7646L68.8015 64.3483C67.0011 66.1487 67.0011 69.0683 68.8015 70.8691C69.7023 71.7694 70.8816 72.2194 72.062 72.2194C73.2425 72.2194 74.4218 71.7694 75.3222 70.8691L107.906 38.2853C109.706 36.4849 109.706 33.5654 107.906 31.7646Z" fill="#505050"/>
<path d="M127.218 50.6471C125.418 48.8467 122.5 48.8467 120.698 50.6467L107.718 63.6265C105.917 65.4272 105.917 68.3468 107.718 70.1472C108.618 71.0476 109.798 71.4976 110.978 71.4976C112.157 71.4976 113.338 71.0476 114.238 70.1472L127.218 57.1674C129.019 55.367 129.019 52.4475 127.218 50.6471Z" fill="#505050"/>
</svg>
