<svg width="200" height="205" viewBox="0 0 200 205" fill="none" xmlns="http://www.w3.org/2000/svg">
<path d="M177.841 46.3068H165.625L140.341 2.84091C139.489 1.42045 138.068 0.568182 136.648 0.284091C135.227 6.34993e-08 133.523 0.284091 132.102 1.13636L103.125 21.0227L87.5 1.98864C86.6477 0.852273 85.2273 0 83.5227 0C81.8182 0 80.3977 0.568182 79.2614 1.70455L35.2273 46.3068H22.1591C9.94318 46.3068 0 56.25 0 68.4659V182.102C0 194.318 9.94318 204.261 22.1591 204.261H177.841C190.057 204.261 200 194.318 200 182.102V68.4659C200 56.25 190.057 46.3068 177.841 46.3068ZM188.636 147.443H152.557C140.341 147.443 130.398 137.5 130.398 125.284C130.398 113.068 140.341 103.125 152.557 103.125H188.636V147.443ZM133.523 13.9205L152.557 46.3068H123.58L110.227 30.1136L133.523 13.9205ZM82.9546 14.2045L109.091 46.3068H51.1364L82.9546 14.2045ZM177.841 193.182H22.1591C16.1932 193.182 11.3636 188.352 11.3636 182.386V68.75C11.3636 62.7841 16.1932 57.9546 22.1591 57.9546H177.841C183.807 57.9546 188.636 62.7841 188.636 68.75V92.0455H152.557C134.091 92.0455 119.034 107.102 119.034 125.568C119.034 144.034 134.091 158.807 152.557 158.807H188.636V182.102C188.636 188.352 183.807 193.182 177.841 193.182Z" fill="#505050"/>
<path d="M153.409 133.522C157.959 133.522 161.648 129.834 161.648 125.284C161.648 120.734 157.959 117.045 153.409 117.045C148.859 117.045 145.171 120.734 145.171 125.284C145.171 129.834 148.859 133.522 153.409 133.522Z" fill="#505050"/>
</svg>
